<mxfile host="app.diagrams.net" modified="2022-01-14T00:44:55.630Z" agent="5.0 (Windows NT 10.0; Win64; x64) AppleWebKit/537.36 (KHTML, like Gecko) Chrome/95.0.4638.54 Safari/537.36" etag="RN_qpAJVNxC30RDUeoIJ" version="16.2.6" type="github">
  <diagram id="4ITWAYaiM-84-ptPlD0d" name="第 1 页">
    <mxGraphModel dx="3015" dy="1102" grid="1" gridSize="10" guides="1" tooltips="1" connect="1" arrows="1" fold="1" page="1" pageScale="1" pageWidth="827" pageHeight="1169" math="0" shadow="0">
      <root>
        <mxCell id="0" />
        <mxCell id="1" parent="0" />
        <mxCell id="lx9h9Hkjl-4GygsY3ic9-141" value="&lt;h1 style=&quot;font-size: 28px&quot;&gt;&lt;font style=&quot;font-size: 28px&quot;&gt;&lt;br&gt;&lt;/font&gt;&lt;/h1&gt;&lt;p style=&quot;font-size: 28px&quot;&gt;&lt;font style=&quot;font-size: 28px&quot;&gt;&lt;b&gt;&lt;i&gt;legend:&lt;/i&gt;&lt;/b&gt;&lt;/font&gt;&lt;/p&gt;&lt;p style=&quot;font-size: 28px&quot;&gt;&lt;font color=&quot;#ff00ff&quot; style=&quot;font-size: 28px&quot;&gt;&lt;b&gt;xxxx Function call by APP&lt;/b&gt;&lt;/font&gt;&lt;/p&gt;&lt;p style=&quot;font-size: 28px&quot;&gt;&lt;font style=&quot;font-size: 28px&quot;&gt;&lt;b style=&quot;color: rgb(255 , 128 , 0)&quot;&gt;xxxx Event triggered&amp;nbsp;by UFO&lt;/b&gt;&lt;font color=&quot;#ff00ff&quot; style=&quot;font-size: 28px&quot;&gt;&lt;b&gt;&lt;br&gt;&lt;/b&gt;&lt;/font&gt;&lt;/font&gt;&lt;/p&gt;&lt;p style=&quot;font-size: 28px&quot;&gt;&lt;b&gt;&lt;font style=&quot;font-size: 28px&quot;&gt;&lt;font color=&quot;#000099&quot; style=&quot;font-size: 28px&quot;&gt;xxxx Event triggered&amp;nbsp;by Internal&lt;/font&gt;&lt;font color=&quot;#ff00ff&quot; style=&quot;font-size: 28px&quot;&gt;&lt;br&gt;&lt;/font&gt;&lt;/font&gt;&lt;/b&gt;&lt;/p&gt;&lt;p style=&quot;font-size: 28px&quot;&gt;&lt;font color=&quot;#336600&quot; style=&quot;font-size: 28px&quot;&gt;&lt;b&gt;xxxx Msg Rcv From External&lt;/b&gt;&lt;/font&gt;&lt;/p&gt;&lt;p style=&quot;font-size: 28px&quot;&gt;&lt;font color=&quot;#336600&quot; style=&quot;font-size: 28px&quot;&gt;&lt;b&gt;&lt;br&gt;&lt;/b&gt;&lt;/font&gt;&lt;/p&gt;&lt;p style=&quot;font-size: 28px&quot;&gt;&lt;font color=&quot;#336600&quot; style=&quot;font-size: 28px&quot;&gt;&lt;b&gt;&lt;br&gt;&lt;/b&gt;&lt;/font&gt;&lt;/p&gt;&lt;p style=&quot;font-size: 28px&quot;&gt;&lt;font color=&quot;#336600&quot; style=&quot;font-size: 28px&quot;&gt;&lt;b&gt;S1 Step 1 、S2 Step 2&lt;/b&gt;&lt;/font&gt;&lt;/p&gt;&lt;p style=&quot;font-size: 28px&quot;&gt;&lt;font style=&quot;font-size: 28px&quot;&gt;&lt;br&gt;&lt;/font&gt;&lt;/p&gt;&lt;p style=&quot;font-size: 28px&quot;&gt;&lt;font color=&quot;#ff8000&quot; style=&quot;font-size: 28px&quot;&gt;&lt;br&gt;&lt;/font&gt;&lt;/p&gt;&lt;p style=&quot;font-size: 28px&quot;&gt;&lt;font color=&quot;#ff8000&quot; style=&quot;font-size: 28px&quot;&gt;&lt;br&gt;&lt;/font&gt;&lt;/p&gt;&lt;p style=&quot;font-size: 28px&quot;&gt;&lt;br&gt;&lt;/p&gt;" style="text;html=1;strokeColor=none;fillColor=none;spacing=5;spacingTop=-20;whiteSpace=wrap;overflow=hidden;rounded=0;" parent="1" vertex="1">
          <mxGeometry x="-500" y="20" width="661" height="560" as="geometry" />
        </mxCell>
        <mxCell id="lx9h9Hkjl-4GygsY3ic9-142" value="&lt;font size=&quot;1&quot;&gt;&lt;b style=&quot;font-size: 28px&quot;&gt;Ofen used channel status&lt;/b&gt;&lt;/font&gt;" style="text;html=1;align=center;verticalAlign=middle;whiteSpace=wrap;rounded=0;strokeWidth=5;fontColor=#51877E;" parent="1" vertex="1">
          <mxGeometry x="-450" y="420" width="400" height="30" as="geometry" />
        </mxCell>
        <mxCell id="lx9h9Hkjl-4GygsY3ic9-143" value="" style="ellipse;whiteSpace=wrap;html=1;fillColor=#60a917;strokeColor=#2D7600;strokeWidth=1;fontColor=#ffffff;" parent="1" vertex="1">
          <mxGeometry x="-490" y="420" width="50" height="30" as="geometry" />
        </mxCell>
        <mxCell id="lx9h9Hkjl-4GygsY3ic9-144" style="edgeStyle=orthogonalEdgeStyle;rounded=0;orthogonalLoop=1;jettySize=auto;html=1;endSize=24;" parent="1" source="lx9h9Hkjl-4GygsY3ic9-145" target="lx9h9Hkjl-4GygsY3ic9-148" edge="1">
          <mxGeometry relative="1" as="geometry" />
        </mxCell>
        <mxCell id="lx9h9Hkjl-4GygsY3ic9-145" value="&lt;span style=&quot;font-size: 28px&quot;&gt;DOWN&lt;/span&gt;" style="ellipse;whiteSpace=wrap;html=1;fillColor=#60a917;strokeColor=#2D7600;fontColor=#ffffff;" parent="1" vertex="1">
          <mxGeometry x="250" y="290" width="260" height="80" as="geometry" />
        </mxCell>
        <mxCell id="lx9h9Hkjl-4GygsY3ic9-146" style="edgeStyle=orthogonalEdgeStyle;rounded=0;orthogonalLoop=1;jettySize=auto;html=1;entryX=0.5;entryY=0;entryDx=0;entryDy=0;endSize=24;" parent="1" source="lx9h9Hkjl-4GygsY3ic9-148" target="lx9h9Hkjl-4GygsY3ic9-153" edge="1">
          <mxGeometry relative="1" as="geometry" />
        </mxCell>
        <mxCell id="lx9h9Hkjl-4GygsY3ic9-147" style="edgeStyle=orthogonalEdgeStyle;rounded=0;orthogonalLoop=1;jettySize=auto;html=1;entryX=1;entryY=0.5;entryDx=0;entryDy=0;curved=1;endSize=24;" parent="1" source="lx9h9Hkjl-4GygsY3ic9-148" target="lx9h9Hkjl-4GygsY3ic9-154" edge="1">
          <mxGeometry relative="1" as="geometry">
            <Array as="points">
              <mxPoint x="1740" y="1295" />
              <mxPoint x="1740" y="2815" />
            </Array>
          </mxGeometry>
        </mxCell>
        <mxCell id="lx9h9Hkjl-4GygsY3ic9-148" value="&lt;span style=&quot;font-size: 28px&quot;&gt;RARLY&lt;/span&gt;" style="ellipse;whiteSpace=wrap;html=1;fillColor=#60a917;strokeColor=#2D7600;fontColor=#ffffff;" parent="1" vertex="1">
          <mxGeometry x="250" y="1255" width="260" height="80" as="geometry" />
        </mxCell>
        <mxCell id="lx9h9Hkjl-4GygsY3ic9-149" style="edgeStyle=orthogonalEdgeStyle;rounded=0;orthogonalLoop=1;jettySize=auto;html=1;entryX=0.5;entryY=0;entryDx=0;entryDy=0;endSize=24;" parent="1" source="lx9h9Hkjl-4GygsY3ic9-153" target="lx9h9Hkjl-4GygsY3ic9-154" edge="1">
          <mxGeometry relative="1" as="geometry" />
        </mxCell>
        <mxCell id="lx9h9Hkjl-4GygsY3ic9-150" style="edgeStyle=none;rounded=0;orthogonalLoop=1;jettySize=auto;html=1;entryX=1;entryY=0.5;entryDx=0;entryDy=0;startArrow=none;endSize=24;" parent="1" source="lx9h9Hkjl-4GygsY3ic9-188" target="lx9h9Hkjl-4GygsY3ic9-158" edge="1">
          <mxGeometry relative="1" as="geometry" />
        </mxCell>
        <mxCell id="lx9h9Hkjl-4GygsY3ic9-151" style="rounded=0;orthogonalLoop=1;jettySize=auto;html=1;entryX=0;entryY=0.5;entryDx=0;entryDy=0;endSize=24;" parent="1" source="lx9h9Hkjl-4GygsY3ic9-153" target="lx9h9Hkjl-4GygsY3ic9-164" edge="1">
          <mxGeometry relative="1" as="geometry" />
        </mxCell>
        <mxCell id="lx9h9Hkjl-4GygsY3ic9-152" style="edgeStyle=orthogonalEdgeStyle;curved=1;rounded=0;orthogonalLoop=1;jettySize=auto;html=1;exitX=0;exitY=1;exitDx=0;exitDy=0;entryX=0;entryY=0;entryDx=0;entryDy=0;fontSize=32;fontColor=#51877E;startSize=6;endSize=24;targetPerimeterSpacing=9;strokeColor=default;strokeWidth=1;" parent="1" source="lx9h9Hkjl-4GygsY3ic9-153" target="lx9h9Hkjl-4GygsY3ic9-154" edge="1">
          <mxGeometry relative="1" as="geometry">
            <Array as="points">
              <mxPoint x="120" y="2123" />
              <mxPoint x="120" y="2787" />
            </Array>
          </mxGeometry>
        </mxCell>
        <mxCell id="lx9h9Hkjl-4GygsY3ic9-153" value="&lt;span style=&quot;font-size: 28px&quot;&gt;ACTIVE&lt;/span&gt;" style="ellipse;whiteSpace=wrap;html=1;fillColor=#60a917;strokeColor=#2D7600;fontColor=#ffffff;" parent="1" vertex="1">
          <mxGeometry x="249" y="2055" width="260" height="80" as="geometry" />
        </mxCell>
        <mxCell id="lx9h9Hkjl-4GygsY3ic9-154" value="&lt;span style=&quot;font-size: 28px&quot;&gt;HANGUP&lt;/span&gt;" style="ellipse;whiteSpace=wrap;html=1;fillColor=#60a917;strokeColor=#2D7600;fontColor=#ffffff;" parent="1" vertex="1">
          <mxGeometry x="248" y="2775" width="260" height="80" as="geometry" />
        </mxCell>
        <mxCell id="lx9h9Hkjl-4GygsY3ic9-155" value="&lt;div style=&quot;line-height: 19px&quot;&gt;&lt;br&gt;&lt;/div&gt;&lt;div style=&quot;font-family: &amp;#34;consolas&amp;#34; , &amp;#34;courier new&amp;#34; , monospace ; line-height: 19px ; font-size: 28px&quot;&gt;&lt;div style=&quot;font-family: &amp;#34;consolas&amp;#34; , &amp;#34;courier new&amp;#34; , monospace ; line-height: 19px&quot;&gt;&lt;br&gt;&lt;/div&gt;&lt;/div&gt;" style="edgeLabel;html=1;align=center;verticalAlign=middle;resizable=0;points=[];fontSize=15;fontColor=#000099;labelBackgroundColor=default;fontStyle=1;" parent="1" vertex="1" connectable="0">
          <mxGeometry x="890" y="1605.0015384615385" as="geometry" />
        </mxCell>
        <mxCell id="lx9h9Hkjl-4GygsY3ic9-156" style="edgeStyle=orthogonalEdgeStyle;curved=1;rounded=0;orthogonalLoop=1;jettySize=auto;html=1;entryX=0;entryY=0.5;entryDx=0;entryDy=0;endSize=24;" parent="1" source="lx9h9Hkjl-4GygsY3ic9-158" target="lx9h9Hkjl-4GygsY3ic9-154" edge="1">
          <mxGeometry relative="1" as="geometry">
            <Array as="points">
              <mxPoint x="-460" y="2815" />
            </Array>
          </mxGeometry>
        </mxCell>
        <mxCell id="lx9h9Hkjl-4GygsY3ic9-157" style="edgeStyle=orthogonalEdgeStyle;curved=1;rounded=0;orthogonalLoop=1;jettySize=auto;html=1;entryX=0.257;entryY=0.014;entryDx=0;entryDy=0;entryPerimeter=0;strokeColor=#00FF00;strokeWidth=3;endSize=24;" parent="1" source="lx9h9Hkjl-4GygsY3ic9-158" target="lx9h9Hkjl-4GygsY3ic9-153" edge="1">
          <mxGeometry relative="1" as="geometry">
            <Array as="points">
              <mxPoint x="-460" y="1865" />
              <mxPoint x="316" y="1865" />
            </Array>
          </mxGeometry>
        </mxCell>
        <mxCell id="lx9h9Hkjl-4GygsY3ic9-158" value="&lt;span style=&quot;font-size: 28px&quot;&gt;RING_WAIT&lt;/span&gt;" style="ellipse;whiteSpace=wrap;html=1;fillColor=#60a917;strokeColor=#2D7600;fontColor=#ffffff;" parent="1" vertex="1">
          <mxGeometry x="-590" y="2055" width="260" height="80" as="geometry" />
        </mxCell>
        <mxCell id="lx9h9Hkjl-4GygsY3ic9-159" value="&lt;h1&gt;呼出状态迁移图&lt;/h1&gt;" style="text;html=1;strokeColor=none;fillColor=none;spacing=5;spacingTop=-20;whiteSpace=wrap;overflow=hidden;rounded=0;" parent="1" vertex="1">
          <mxGeometry x="300" y="50" width="250" height="60" as="geometry" />
        </mxCell>
        <mxCell id="lx9h9Hkjl-4GygsY3ic9-160" value="&lt;font size=&quot;1&quot;&gt;&lt;b style=&quot;font-size: 28px&quot;&gt;Ofen used channel status&lt;/b&gt;&lt;/font&gt;" style="text;html=1;align=center;verticalAlign=middle;whiteSpace=wrap;rounded=0;strokeWidth=5;fontColor=#51877E;" parent="1" vertex="1">
          <mxGeometry x="-450" y="420" width="400" height="30" as="geometry" />
        </mxCell>
        <mxCell id="lx9h9Hkjl-4GygsY3ic9-161" value="" style="ellipse;whiteSpace=wrap;html=1;fillColor=#60a917;strokeColor=#2D7600;strokeWidth=1;fontColor=#ffffff;" parent="1" vertex="1">
          <mxGeometry x="-490" y="420" width="50" height="30" as="geometry" />
        </mxCell>
        <mxCell id="lx9h9Hkjl-4GygsY3ic9-162" style="edgeStyle=orthogonalEdgeStyle;curved=1;rounded=0;orthogonalLoop=1;jettySize=auto;html=1;entryX=0.5;entryY=0;entryDx=0;entryDy=0;strokeWidth=5;endSize=24;" parent="1" source="lx9h9Hkjl-4GygsY3ic9-164" target="lx9h9Hkjl-4GygsY3ic9-167" edge="1">
          <mxGeometry relative="1" as="geometry" />
        </mxCell>
        <mxCell id="lx9h9Hkjl-4GygsY3ic9-163" style="edgeStyle=orthogonalEdgeStyle;curved=1;rounded=0;orthogonalLoop=1;jettySize=auto;html=1;entryX=1;entryY=0.5;entryDx=0;entryDy=0;strokeColor=#EA6B66;strokeWidth=4;endSize=24;" parent="1" source="lx9h9Hkjl-4GygsY3ic9-164" target="lx9h9Hkjl-4GygsY3ic9-167" edge="1">
          <mxGeometry relative="1" as="geometry">
            <Array as="points">
              <mxPoint x="1430" y="1745" />
              <mxPoint x="1430" y="2395" />
            </Array>
          </mxGeometry>
        </mxCell>
        <mxCell id="lx9h9Hkjl-4GygsY3ic9-164" value="&lt;span style=&quot;font-size: 28px&quot;&gt;HELD&lt;/span&gt;" style="ellipse;whiteSpace=wrap;html=1;fillColor=#60a917;strokeColor=#2D7600;fontColor=#ffffff;" parent="1" vertex="1">
          <mxGeometry x="950" y="1705" width="260" height="80" as="geometry" />
        </mxCell>
        <mxCell id="lx9h9Hkjl-4GygsY3ic9-165" style="rounded=0;orthogonalLoop=1;jettySize=auto;html=1;strokeWidth=5;startArrow=none;endSize=24;" parent="1" source="lx9h9Hkjl-4GygsY3ic9-185" edge="1">
          <mxGeometry relative="1" as="geometry">
            <mxPoint x="450" y="2125" as="targetPoint" />
          </mxGeometry>
        </mxCell>
        <mxCell id="lx9h9Hkjl-4GygsY3ic9-166" style="rounded=0;orthogonalLoop=1;jettySize=auto;html=1;entryX=1;entryY=0;entryDx=0;entryDy=0;strokeColor=#EA6B66;strokeWidth=4;startArrow=none;endSize=24;" parent="1" source="lx9h9Hkjl-4GygsY3ic9-182" target="lx9h9Hkjl-4GygsY3ic9-154" edge="1">
          <mxGeometry relative="1" as="geometry" />
        </mxCell>
        <mxCell id="lx9h9Hkjl-4GygsY3ic9-167" value="&lt;span style=&quot;font-size: 28px&quot;&gt;UNHELD&lt;/span&gt;" style="ellipse;whiteSpace=wrap;html=1;fillColor=#60a917;strokeColor=#2D7600;fontColor=#ffffff;" parent="1" vertex="1">
          <mxGeometry x="960" y="2355" width="260" height="80" as="geometry" />
        </mxCell>
        <mxCell id="lx9h9Hkjl-4GygsY3ic9-168" value="&lt;div style=&quot;line-height: 19px&quot;&gt;&lt;br&gt;&lt;/div&gt;&lt;div style=&quot;font-family: &amp;#34;consolas&amp;#34; , &amp;#34;courier new&amp;#34; , monospace ; line-height: 19px ; font-size: 28px&quot;&gt;&lt;div style=&quot;font-family: &amp;#34;consolas&amp;#34; , &amp;#34;courier new&amp;#34; , monospace ; line-height: 19px&quot;&gt;&lt;br&gt;&lt;/div&gt;&lt;/div&gt;" style="edgeLabel;html=1;align=center;verticalAlign=middle;resizable=0;points=[];fontSize=15;fontColor=#000099;labelBackgroundColor=default;fontStyle=1;" parent="1" vertex="1" connectable="0">
          <mxGeometry x="890" y="1605.0015384615385" as="geometry" />
        </mxCell>
        <mxCell id="lx9h9Hkjl-4GygsY3ic9-169" value="&lt;div style=&quot;font-family: &amp;#34;consolas&amp;#34; , &amp;#34;courier new&amp;#34; , monospace ; line-height: 19px ; font-size: 28px&quot;&gt;&lt;span&gt;CHANNEL_CALLSTATE（RINGING）&lt;/span&gt;&lt;br&gt;&lt;/div&gt;&lt;div style=&quot;font-family: &amp;#34;consolas&amp;#34; , &amp;#34;courier new&amp;#34; , monospace ; line-height: 19px ; font-size: 28px&quot;&gt;&lt;span&gt;&lt;br&gt;&lt;/span&gt;&lt;/div&gt;&lt;div style=&quot;font-family: &amp;#34;consolas&amp;#34; , &amp;#34;courier new&amp;#34; , monospace ; line-height: 19px ; font-size: 28px&quot;&gt;&lt;span&gt;&lt;font color=&quot;#ff8000&quot;&gt;OnRingback&lt;/font&gt;&lt;/span&gt;&lt;/div&gt;" style="edgeLabel;html=1;align=center;verticalAlign=middle;resizable=0;points=[];fontSize=15;fontColor=default;labelBackgroundColor=default;fontStyle=1;labelBorderColor=none;" parent="1" vertex="1" connectable="0">
          <mxGeometry x="390" y="600.0015384615385" as="geometry">
            <mxPoint x="16" y="-30" as="offset" />
          </mxGeometry>
        </mxCell>
        <mxCell id="lx9h9Hkjl-4GygsY3ic9-170" value="&lt;div style=&quot;line-height: 19px&quot;&gt;&lt;font face=&quot;consolas, courier new, monospace&quot;&gt;&lt;span style=&quot;font-size: 28px&quot;&gt;CHANNEL_CALLSTATE（ACTIVE）&lt;/span&gt;&lt;/font&gt;&lt;br&gt;&lt;/div&gt;&lt;div style=&quot;font-family: &amp;#34;consolas&amp;#34; , &amp;#34;courier new&amp;#34; , monospace ; line-height: 19px ; font-size: 28px&quot;&gt;&lt;span&gt;&lt;br&gt;&lt;/span&gt;&lt;/div&gt;&lt;div style=&quot;font-family: &amp;#34;consolas&amp;#34; , &amp;#34;courier new&amp;#34; , monospace ; line-height: 19px ; font-size: 28px&quot;&gt;&lt;span style=&quot;color: rgb(255 , 128 , 0)&quot;&gt;OnTalking&lt;/span&gt;&lt;span&gt;&lt;br&gt;&lt;/span&gt;&lt;/div&gt;&lt;div style=&quot;font-family: &amp;#34;consolas&amp;#34; , &amp;#34;courier new&amp;#34; , monospace ; line-height: 19px ; font-size: 28px&quot;&gt;&lt;span style=&quot;color: rgb(255 , 128 , 0)&quot;&gt;&lt;br&gt;&lt;/span&gt;&lt;/div&gt;&lt;div style=&quot;font-family: &amp;#34;consolas&amp;#34; , &amp;#34;courier new&amp;#34; , monospace ; line-height: 19px ; font-size: 28px&quot;&gt;&lt;span style=&quot;color: rgb(255 , 128 , 0)&quot;&gt;OnRemoteStateChange&lt;/span&gt;&lt;/div&gt;&lt;div style=&quot;font-family: &amp;#34;consolas&amp;#34; , &amp;#34;courier new&amp;#34; , monospace ; line-height: 19px ; font-size: 28px&quot;&gt;&lt;div style=&quot;font-family: &amp;#34;consolas&amp;#34; , &amp;#34;courier new&amp;#34; , monospace ; line-height: 19px&quot;&gt;&lt;br&gt;&lt;/div&gt;&lt;/div&gt;" style="edgeLabel;html=1;align=center;verticalAlign=middle;resizable=0;points=[];fontSize=15;fontColor=#000099;labelBackgroundColor=default;fontStyle=1;" parent="1" vertex="1" connectable="0">
          <mxGeometry x="380" y="1654.0015384615385" as="geometry" />
        </mxCell>
        <mxCell id="lx9h9Hkjl-4GygsY3ic9-171" value="&lt;div style=&quot;font-family: &amp;#34;consolas&amp;#34; , &amp;#34;courier new&amp;#34; , monospace ; line-height: 19px ; font-size: 28px&quot;&gt;&lt;div style=&quot;font-family: &amp;#34;consolas&amp;#34; , &amp;#34;courier new&amp;#34; , monospace ; line-height: 19px&quot;&gt;&lt;h1 class=&quot;topictitle1&quot;&gt;&lt;font color=&quot;#ff00ff&quot; style=&quot;font-size: 28px&quot;&gt;HangUp&lt;/font&gt;&lt;/h1&gt;&lt;div&gt;&lt;font style=&quot;font-size: 28px&quot; color=&quot;#ff8000&quot;&gt;OnHangUpResult&lt;/font&gt;&lt;/div&gt;&lt;div&gt;&lt;font style=&quot;font-size: 28px&quot; color=&quot;#ff8000&quot;&gt;&lt;br&gt;&lt;/font&gt;&lt;/div&gt;&lt;div&gt;&lt;font style=&quot;font-size: 28px&quot; color=&quot;#ff8000&quot;&gt;&lt;br&gt;&lt;/font&gt;&lt;/div&gt;&lt;div&gt;&lt;div style=&quot;color: rgb(0 , 0 , 153) ; font-family: &amp;#34;helvetica&amp;#34; ; font-size: 15px ; line-height: 19px&quot;&gt;&lt;font face=&quot;consolas, courier new, monospace&quot;&gt;&lt;span style=&quot;font-size: 28px&quot;&gt;CHANNEL_CALLSTATE（HANGUP）&lt;/span&gt;&lt;/font&gt;&lt;br&gt;&lt;/div&gt;&lt;div style=&quot;color: rgb(0 , 0 , 153) ; line-height: 19px&quot;&gt;&lt;br&gt;&lt;/div&gt;&lt;div style=&quot;color: rgb(0 , 0 , 153) ; line-height: 19px&quot;&gt;&lt;span style=&quot;color: rgb(255 , 128 , 0)&quot;&gt;OnHangup&lt;/span&gt;&lt;br&gt;&lt;/div&gt;&lt;/div&gt;&lt;div&gt;&lt;span style=&quot;color: rgb(255 , 128 , 0)&quot;&gt;&lt;br&gt;&lt;/span&gt;&lt;/div&gt;&lt;div&gt;&lt;font style=&quot;font-size: 28px&quot; color=&quot;#ff8000&quot;&gt;&lt;br&gt;&lt;/font&gt;&lt;/div&gt;&lt;/div&gt;&lt;/div&gt;" style="edgeLabel;html=1;align=center;verticalAlign=middle;resizable=0;points=[];fontSize=15;fontColor=#CC00CC;labelBackgroundColor=default;fontStyle=1;" parent="1" vertex="1" connectable="0">
          <mxGeometry x="650" y="1135" as="geometry">
            <mxPoint x="320" y="206" as="offset" />
          </mxGeometry>
        </mxCell>
        <mxCell id="lx9h9Hkjl-4GygsY3ic9-172" value="&lt;div style=&quot;line-height: 19px&quot;&gt;&lt;font face=&quot;consolas, courier new, monospace&quot;&gt;&lt;span style=&quot;font-size: 28px&quot;&gt;CHANNEL_CALLSTATE（ACTIVE）&lt;/span&gt;&lt;/font&gt;&lt;br&gt;&lt;/div&gt;&lt;div style=&quot;font-family: &amp;quot;consolas&amp;quot; , &amp;quot;courier new&amp;quot; , monospace ; line-height: 19px ; font-size: 28px&quot;&gt;&lt;span&gt;&lt;br&gt;&lt;/span&gt;&lt;/div&gt;&lt;div style=&quot;font-family: &amp;quot;consolas&amp;quot; , &amp;quot;courier new&amp;quot; , monospace ; line-height: 19px ; font-size: 28px&quot;&gt;&lt;span style=&quot;color: rgb(255 , 128 , 0)&quot;&gt;OnTalking&lt;/span&gt;&lt;span&gt;&lt;br&gt;&lt;/span&gt;&lt;/div&gt;&lt;div style=&quot;font-family: &amp;quot;consolas&amp;quot; , &amp;quot;courier new&amp;quot; , monospace ; line-height: 19px ; font-size: 28px&quot;&gt;&lt;span&gt;&lt;br&gt;&lt;/span&gt;&lt;/div&gt;&lt;div style=&quot;font-family: &amp;quot;consolas&amp;quot; , &amp;quot;courier new&amp;quot; , monospace ; line-height: 19px ; font-size: 28px&quot;&gt;&lt;div style=&quot;font-family: &amp;quot;consolas&amp;quot; , &amp;quot;courier new&amp;quot; , monospace ; line-height: 19px&quot;&gt;&lt;br&gt;&lt;/div&gt;&lt;/div&gt;" style="edgeLabel;html=1;align=center;verticalAlign=middle;resizable=0;points=[];fontSize=15;fontColor=#000099;labelBackgroundColor=default;fontStyle=1;" parent="1" vertex="1" connectable="0">
          <mxGeometry x="-120" y="2245.0015384615385" as="geometry">
            <mxPoint x="86" y="-409" as="offset" />
          </mxGeometry>
        </mxCell>
        <mxCell id="lx9h9Hkjl-4GygsY3ic9-173" value="&lt;div style=&quot;font-family: &amp;#34;consolas&amp;#34; , &amp;#34;courier new&amp;#34; , monospace ; line-height: 19px ; font-size: 28px&quot;&gt;&lt;div style=&quot;font-family: &amp;#34;consolas&amp;#34; , &amp;#34;courier new&amp;#34; , monospace ; line-height: 19px&quot;&gt;&lt;h1 class=&quot;topictitle1&quot;&gt;&lt;font color=&quot;#ff00ff&quot; style=&quot;font-size: 28px&quot;&gt;HangUp&lt;/font&gt;&lt;/h1&gt;&lt;div&gt;&lt;font style=&quot;font-size: 28px&quot; color=&quot;#ff8000&quot;&gt;OnHangUpResult&lt;/font&gt;&lt;/div&gt;&lt;div&gt;&lt;font style=&quot;font-size: 28px&quot; color=&quot;#ff8000&quot;&gt;&lt;br&gt;&lt;/font&gt;&lt;/div&gt;&lt;div&gt;&lt;font style=&quot;font-size: 28px&quot; color=&quot;#ff8000&quot;&gt;&lt;br&gt;&lt;/font&gt;&lt;/div&gt;&lt;div&gt;&lt;div style=&quot;color: rgb(0 , 0 , 153) ; font-family: &amp;#34;helvetica&amp;#34; ; font-size: 15px ; line-height: 19px&quot;&gt;&lt;font face=&quot;consolas, courier new, monospace&quot;&gt;&lt;span style=&quot;font-size: 28px&quot;&gt;CHANNEL_CALLSTATE（HANGUP）&lt;/span&gt;&lt;/font&gt;&lt;br&gt;&lt;/div&gt;&lt;div style=&quot;color: rgb(0 , 0 , 153) ; line-height: 19px&quot;&gt;&lt;br&gt;&lt;/div&gt;&lt;div style=&quot;color: rgb(0 , 0 , 153) ; line-height: 19px&quot;&gt;&lt;span style=&quot;color: rgb(255 , 128 , 0)&quot;&gt;OnHangup&lt;/span&gt;&lt;br&gt;&lt;/div&gt;&lt;/div&gt;&lt;div&gt;&lt;span style=&quot;color: rgb(255 , 128 , 0)&quot;&gt;&lt;br&gt;&lt;/span&gt;&lt;/div&gt;&lt;div&gt;&lt;font style=&quot;font-size: 28px&quot; color=&quot;#ff8000&quot;&gt;&lt;br&gt;&lt;/font&gt;&lt;/div&gt;&lt;/div&gt;&lt;/div&gt;" style="edgeLabel;html=1;align=center;verticalAlign=middle;resizable=0;points=[];fontSize=15;fontColor=#CC00CC;labelBackgroundColor=default;fontStyle=1;" parent="1" vertex="1" connectable="0">
          <mxGeometry x="-650" y="2160" as="geometry">
            <mxPoint x="320" y="206" as="offset" />
          </mxGeometry>
        </mxCell>
        <mxCell id="lx9h9Hkjl-4GygsY3ic9-175" value="&lt;div style=&quot;font-family: &amp;#34;consolas&amp;#34; , &amp;#34;courier new&amp;#34; , monospace ; line-height: 19px ; font-size: 28px&quot;&gt;&lt;div style=&quot;font-family: &amp;#34;consolas&amp;#34; , &amp;#34;courier new&amp;#34; , monospace ; line-height: 19px ; font-size: 28px&quot;&gt;&lt;h1 class=&quot;topictitle1&quot; style=&quot;font-size: 28px&quot;&gt;&lt;font color=&quot;#ff00ff&quot; style=&quot;font-size: 28px&quot;&gt;Hold&lt;/font&gt;&lt;/h1&gt;&lt;div style=&quot;font-size: 28px&quot;&gt;&lt;font style=&quot;font-size: 28px&quot; color=&quot;#ff8000&quot;&gt;OnHoldResult&lt;/font&gt;&lt;/div&gt;&lt;div style=&quot;font-size: 28px&quot;&gt;&lt;font style=&quot;font-size: 28px&quot; color=&quot;#ff8000&quot;&gt;&lt;br&gt;&lt;/font&gt;&lt;/div&gt;&lt;div style=&quot;font-size: 28px&quot;&gt;&lt;font style=&quot;font-size: 28px&quot; color=&quot;#ff8000&quot;&gt;&lt;br&gt;&lt;/font&gt;&lt;/div&gt;&lt;div style=&quot;font-size: 28px&quot;&gt;&lt;div style=&quot;color: rgb(0 , 0 , 153) ; font-family: &amp;#34;helvetica&amp;#34; ; font-size: 15px ; line-height: 19px&quot;&gt;&lt;font face=&quot;consolas, courier new, monospace&quot;&gt;&lt;span style=&quot;font-size: 28px&quot;&gt;CHANNEL_CALLSTATE（HELD）&lt;/span&gt;&lt;/font&gt;&lt;br&gt;&lt;/div&gt;&lt;div style=&quot;color: rgb(0 , 0 , 153) ; line-height: 19px&quot;&gt;&lt;br&gt;&lt;/div&gt;&lt;div style=&quot;color: rgb(0 , 0 , 153) ; line-height: 19px&quot;&gt;&lt;span style=&quot;color: rgb(255 , 128 , 0)&quot;&gt;OnHolding&lt;/span&gt;&lt;/div&gt;&lt;/div&gt;&lt;/div&gt;&lt;/div&gt;" style="edgeLabel;html=1;align=center;verticalAlign=middle;resizable=0;points=[];fontSize=28;fontColor=#CC00CC;labelBackgroundColor=default;fontStyle=1;" parent="1" vertex="1" connectable="0">
          <mxGeometry x="414" y="1975" as="geometry">
            <mxPoint x="322" y="-87" as="offset" />
          </mxGeometry>
        </mxCell>
        <mxCell id="lx9h9Hkjl-4GygsY3ic9-177" value="&lt;div style=&quot;font-family: &amp;#34;consolas&amp;#34; , &amp;#34;courier new&amp;#34; , monospace ; font-size: 28px ; line-height: 19px&quot;&gt;&lt;div style=&quot;font-family: &amp;#34;consolas&amp;#34; , &amp;#34;courier new&amp;#34; , monospace ; line-height: 19px ; font-size: 28px&quot;&gt;&lt;h1 class=&quot;topictitle1&quot; style=&quot;font-size: 28px&quot;&gt;&lt;font color=&quot;#ff00ff&quot; style=&quot;font-size: 28px&quot;&gt;UnHold&lt;/font&gt;&lt;/h1&gt;&lt;div style=&quot;font-size: 28px&quot;&gt;&lt;font style=&quot;font-size: 28px&quot; color=&quot;#ff8000&quot;&gt;OnUnHoldResult&lt;/font&gt;&lt;/div&gt;&lt;div style=&quot;font-size: 28px&quot;&gt;&lt;font style=&quot;font-size: 28px&quot; color=&quot;#ff8000&quot;&gt;&lt;br&gt;&lt;/font&gt;&lt;/div&gt;&lt;div style=&quot;font-size: 28px&quot;&gt;&lt;font style=&quot;font-size: 28px&quot; color=&quot;#ff8000&quot;&gt;&lt;br&gt;&lt;/font&gt;&lt;/div&gt;&lt;div style=&quot;font-size: 28px&quot;&gt;&lt;div style=&quot;color: rgb(0 , 0 , 153) ; font-family: &amp;#34;helvetica&amp;#34; ; font-size: 15px ; line-height: 19px&quot;&gt;&lt;font face=&quot;consolas, courier new, monospace&quot;&gt;&lt;span style=&quot;font-size: 28px&quot;&gt;CHANNEL_CALLSTATE（UNHELD）&lt;/span&gt;&lt;/font&gt;&lt;br&gt;&lt;/div&gt;&lt;div style=&quot;color: rgb(0 , 0 , 153) ; line-height: 19px&quot;&gt;&lt;br&gt;&lt;/div&gt;&lt;div style=&quot;color: rgb(0 , 0 , 153) ; line-height: 19px&quot;&gt;&lt;span style=&quot;color: rgb(255 , 128 , 0)&quot;&gt;OnUnHolding&lt;/span&gt;&lt;/div&gt;&lt;/div&gt;&lt;/div&gt;&lt;/div&gt;" style="edgeLabel;html=1;align=center;verticalAlign=middle;resizable=0;points=[];fontSize=28;fontColor=#CC00CC;labelBackgroundColor=default;fontStyle=1;" parent="1" vertex="1" connectable="0">
          <mxGeometry x="1100" y="2045" as="geometry">
            <mxPoint x="-12" y="2" as="offset" />
          </mxGeometry>
        </mxCell>
        <mxCell id="lx9h9Hkjl-4GygsY3ic9-178" value="&lt;div style=&quot;font-family: &amp;quot;consolas&amp;quot; , &amp;quot;courier new&amp;quot; , monospace ; line-height: 19px ; font-size: 28px&quot;&gt;&lt;div style=&quot;font-family: &amp;quot;consolas&amp;quot; , &amp;quot;courier new&amp;quot; , monospace ; line-height: 19px&quot;&gt;&lt;h1 class=&quot;topictitle1&quot;&gt;&lt;font color=&quot;#ff00ff&quot; style=&quot;font-size: 28px&quot;&gt;HangUp&lt;/font&gt;&lt;/h1&gt;&lt;div&gt;&lt;font style=&quot;font-size: 28px&quot; color=&quot;#ff8000&quot;&gt;OnHangUpResult&lt;/font&gt;&lt;/div&gt;&lt;/div&gt;&lt;/div&gt;" style="edgeLabel;html=1;align=center;verticalAlign=middle;resizable=0;points=[];fontSize=15;fontColor=#CC00CC;labelBackgroundColor=default;fontStyle=1;" parent="1" vertex="1" connectable="0">
          <mxGeometry x="1100" y="1685" as="geometry">
            <mxPoint x="320" y="206" as="offset" />
          </mxGeometry>
        </mxCell>
        <mxCell id="lx9h9Hkjl-4GygsY3ic9-179" value="&lt;div style=&quot;line-height: 19px&quot;&gt;&lt;font face=&quot;consolas, courier new, monospace&quot;&gt;&lt;span style=&quot;font-size: 28px&quot;&gt;CHANNEL_CALLSTATE（UNHELD）&lt;/span&gt;&lt;/font&gt;&lt;br&gt;&lt;/div&gt;&lt;div style=&quot;font-family: &amp;#34;consolas&amp;#34; , &amp;#34;courier new&amp;#34; , monospace ; line-height: 19px ; font-size: 28px&quot;&gt;&lt;span&gt;&lt;br&gt;&lt;/span&gt;&lt;/div&gt;&lt;div style=&quot;font-family: &amp;#34;consolas&amp;#34; , &amp;#34;courier new&amp;#34; , monospace ; line-height: 19px ; font-size: 28px&quot;&gt;&lt;span style=&quot;color: rgb(255 , 128 , 0)&quot;&gt;OnUnHolding&lt;/span&gt;&lt;span&gt;&lt;br&gt;&lt;/span&gt;&lt;/div&gt;&lt;div style=&quot;font-family: &amp;#34;consolas&amp;#34; , &amp;#34;courier new&amp;#34; , monospace ; line-height: 19px ; font-size: 28px&quot;&gt;&lt;span&gt;&lt;br&gt;&lt;/span&gt;&lt;/div&gt;&lt;div style=&quot;font-family: &amp;#34;consolas&amp;#34; , &amp;#34;courier new&amp;#34; , monospace ; line-height: 19px ; font-size: 28px&quot;&gt;&lt;div style=&quot;font-family: &amp;#34;consolas&amp;#34; , &amp;#34;courier new&amp;#34; , monospace ; line-height: 19px&quot;&gt;&lt;br&gt;&lt;/div&gt;&lt;/div&gt;" style="edgeLabel;html=1;align=center;verticalAlign=middle;resizable=0;points=[];fontSize=15;fontColor=#000099;labelBackgroundColor=default;fontStyle=1;" parent="1" vertex="1" connectable="0">
          <mxGeometry x="1420" y="2025.0015384615385" as="geometry">
            <mxPoint x="38" y="28" as="offset" />
          </mxGeometry>
        </mxCell>
        <mxCell id="lx9h9Hkjl-4GygsY3ic9-180" value="&lt;div style=&quot;font-family: &amp;#34;consolas&amp;#34; , &amp;#34;courier new&amp;#34; , monospace ; line-height: 19px ; font-size: 28px&quot;&gt;&lt;div style=&quot;font-family: &amp;#34;consolas&amp;#34; , &amp;#34;courier new&amp;#34; , monospace ; line-height: 19px&quot;&gt;&lt;h1 class=&quot;topictitle1&quot;&gt;&lt;font color=&quot;#ff00ff&quot; style=&quot;font-size: 28px&quot;&gt;HangUp&lt;/font&gt;&lt;/h1&gt;&lt;div&gt;&lt;font style=&quot;font-size: 28px&quot; color=&quot;#ff8000&quot;&gt;OnHangUpResult&lt;/font&gt;&lt;/div&gt;&lt;div&gt;&lt;font style=&quot;font-size: 28px&quot; color=&quot;#ff8000&quot;&gt;&lt;br&gt;&lt;/font&gt;&lt;/div&gt;&lt;div&gt;&lt;font style=&quot;font-size: 28px&quot; color=&quot;#ff8000&quot;&gt;&lt;br&gt;&lt;/font&gt;&lt;/div&gt;&lt;div&gt;&lt;div style=&quot;color: rgb(0 , 0 , 153) ; font-family: &amp;#34;helvetica&amp;#34; ; font-size: 15px ; line-height: 19px&quot;&gt;&lt;font face=&quot;consolas, courier new, monospace&quot;&gt;&lt;span style=&quot;font-size: 28px&quot;&gt;CHANNEL_CALLSTATE（HANGUP）&lt;/span&gt;&lt;/font&gt;&lt;br&gt;&lt;/div&gt;&lt;div style=&quot;color: rgb(0 , 0 , 153) ; line-height: 19px&quot;&gt;&lt;br&gt;&lt;/div&gt;&lt;div style=&quot;color: rgb(0 , 0 , 153) ; line-height: 19px&quot;&gt;&lt;span style=&quot;color: rgb(255 , 128 , 0)&quot;&gt;OnHangup&lt;/span&gt;&lt;br&gt;&lt;/div&gt;&lt;/div&gt;&lt;div&gt;&lt;span style=&quot;color: rgb(255 , 128 , 0)&quot;&gt;&lt;br&gt;&lt;/span&gt;&lt;/div&gt;&lt;div&gt;&lt;font style=&quot;font-size: 28px&quot; color=&quot;#ff8000&quot;&gt;&lt;br&gt;&lt;/font&gt;&lt;/div&gt;&lt;/div&gt;&lt;/div&gt;" style="edgeLabel;html=1;align=center;verticalAlign=middle;resizable=0;points=[];fontSize=15;fontColor=#CC00CC;labelBackgroundColor=default;fontStyle=1;" parent="1" vertex="1" connectable="0">
          <mxGeometry x="70" y="2385" as="geometry">
            <mxPoint x="320" y="206" as="offset" />
          </mxGeometry>
        </mxCell>
        <mxCell id="lx9h9Hkjl-4GygsY3ic9-181" value="&lt;font style=&quot;font-size: 32px&quot;&gt;S1&lt;/font&gt;" style="ellipse;whiteSpace=wrap;html=1;aspect=fixed;strokeWidth=1;fontFamily=Tahoma;spacingBottom=4;spacingRight=2;strokeColor=#d3d3d3;labelBackgroundColor=default;labelBorderColor=none;fontColor=#FF8000;perimeterSpacing=1;" parent="1" vertex="1">
          <mxGeometry x="1390" y="2275" width="20" height="20" as="geometry" />
        </mxCell>
        <mxCell id="lx9h9Hkjl-4GygsY3ic9-182" value="&lt;font style=&quot;font-size: 32px&quot;&gt;S2&lt;/font&gt;" style="ellipse;whiteSpace=wrap;html=1;aspect=fixed;strokeWidth=1;fontFamily=Tahoma;spacingBottom=4;spacingRight=2;strokeColor=#d3d3d3;labelBackgroundColor=default;labelBorderColor=none;fontColor=#FF8000;perimeterSpacing=1;" parent="1" vertex="1">
          <mxGeometry x="590" y="2695" width="20" height="20" as="geometry" />
        </mxCell>
        <mxCell id="lx9h9Hkjl-4GygsY3ic9-183" value="" style="rounded=0;orthogonalLoop=1;jettySize=auto;html=1;entryX=1;entryY=0;entryDx=0;entryDy=0;strokeColor=#EA6B66;strokeWidth=4;endArrow=none;" parent="1" source="lx9h9Hkjl-4GygsY3ic9-167" target="lx9h9Hkjl-4GygsY3ic9-182" edge="1">
          <mxGeometry relative="1" as="geometry">
            <mxPoint x="1032.8778976024878" y="2430.9316450564993" as="sourcePoint" />
            <mxPoint x="469.92388155425124" y="2786.7157287525383" as="targetPoint" />
          </mxGeometry>
        </mxCell>
        <mxCell id="lx9h9Hkjl-4GygsY3ic9-184" value="&lt;font style=&quot;font-size: 32px&quot; color=&quot;#0000cc&quot;&gt;S1&lt;/font&gt;" style="ellipse;whiteSpace=wrap;html=1;aspect=fixed;strokeWidth=1;fontFamily=Tahoma;spacingBottom=4;spacingRight=2;strokeColor=#d3d3d3;labelBackgroundColor=default;labelBorderColor=none;fontColor=#FF8000;perimeterSpacing=1;" parent="1" vertex="1">
          <mxGeometry x="1090" y="2275" width="10" height="10" as="geometry" />
        </mxCell>
        <mxCell id="lx9h9Hkjl-4GygsY3ic9-185" value="&lt;font style=&quot;font-size: 32px&quot; color=&quot;#0000cc&quot;&gt;S2&lt;/font&gt;" style="ellipse;whiteSpace=wrap;html=1;aspect=fixed;strokeWidth=1;fontFamily=Tahoma;spacingBottom=4;spacingRight=2;strokeColor=#d3d3d3;labelBackgroundColor=default;labelBorderColor=none;fontColor=#FF8000;perimeterSpacing=1;" parent="1" vertex="1">
          <mxGeometry x="550" y="2165" width="20" height="20" as="geometry" />
        </mxCell>
        <mxCell id="lx9h9Hkjl-4GygsY3ic9-186" value="" style="rounded=0;orthogonalLoop=1;jettySize=auto;html=1;strokeWidth=5;endArrow=none;" parent="1" source="lx9h9Hkjl-4GygsY3ic9-167" target="lx9h9Hkjl-4GygsY3ic9-185" edge="1">
          <mxGeometry relative="1" as="geometry">
            <mxPoint x="1013.3954097679471" y="2362.6824384958527" as="sourcePoint" />
            <mxPoint x="450" y="2125" as="targetPoint" />
          </mxGeometry>
        </mxCell>
        <mxCell id="lx9h9Hkjl-4GygsY3ic9-187" value="&lt;div style=&quot;line-height: 19px&quot;&gt;&lt;div style=&quot;line-height: 19px&quot;&gt;&lt;h1 class=&quot;topictitle1&quot;&gt;&lt;font color=&quot;#ff00ff&quot; face=&quot;consolas, courier new, monospace&quot;&gt;&lt;span style=&quot;font-size: 28px&quot;&gt;Transfer&lt;/span&gt;&lt;/font&gt;&lt;br&gt;&lt;/h1&gt;&lt;div&gt;&lt;font color=&quot;#ff8000&quot; face=&quot;consolas, courier new, monospace&quot;&gt;OnTransferResult&lt;/font&gt;&lt;/div&gt;&lt;div&gt;&lt;font color=&quot;#ff8000&quot; face=&quot;consolas, courier new, monospace&quot;&gt;&lt;br&gt;&lt;/font&gt;&lt;/div&gt;&lt;div&gt;&lt;font color=&quot;#ff8000&quot; face=&quot;consolas, courier new, monospace&quot;&gt;&lt;br&gt;&lt;/font&gt;&lt;/div&gt;&lt;div&gt;&lt;div style=&quot;color: rgb(0 , 0 , 153) ; font-size: 15px ; line-height: 19px&quot;&gt;&lt;font face=&quot;consolas, courier new, monospace&quot;&gt;&lt;span style=&quot;font-size: 28px&quot;&gt;CHANNEL_CALLSTATE（HANGUP）&lt;/span&gt;&lt;/font&gt;&lt;/div&gt;&lt;div style=&quot;color: rgb(0 , 0 , 153) ; font-family: &amp;#34;consolas&amp;#34; , &amp;#34;courier new&amp;#34; , monospace ; line-height: 19px&quot;&gt;&lt;span style=&quot;color: rgb(255 , 128 , 0)&quot;&gt;OnHangup&lt;/span&gt;&lt;br&gt;&lt;/div&gt;&lt;/div&gt;&lt;/div&gt;&lt;/div&gt;" style="edgeLabel;html=1;align=center;verticalAlign=middle;resizable=0;points=[];fontSize=28;fontColor=#CC00CC;labelBackgroundColor=default;fontStyle=1;" parent="1" vertex="1" connectable="0">
          <mxGeometry x="120" y="2345" as="geometry">
            <mxPoint x="-35" y="21" as="offset" />
          </mxGeometry>
        </mxCell>
        <mxCell id="lx9h9Hkjl-4GygsY3ic9-188" value="&lt;font style=&quot;font-size: 32px&quot; color=&quot;#0000cc&quot;&gt;S1&lt;/font&gt;" style="ellipse;whiteSpace=wrap;html=1;aspect=fixed;strokeWidth=1;fontFamily=Tahoma;spacingBottom=4;spacingRight=2;strokeColor=#36393d;labelBackgroundColor=default;labelBorderColor=none;perimeterSpacing=1;fillColor=#cdeb8b;" parent="1" vertex="1">
          <mxGeometry x="-272" y="2090" width="10" height="10" as="geometry" />
        </mxCell>
        <mxCell id="lx9h9Hkjl-4GygsY3ic9-189" value="" style="edgeStyle=none;rounded=0;orthogonalLoop=1;jettySize=auto;html=1;entryX=1;entryY=0.5;entryDx=0;entryDy=0;endArrow=none;strokeColor=#00FF00;strokeWidth=3;endSize=24;" parent="1" source="lx9h9Hkjl-4GygsY3ic9-153" target="lx9h9Hkjl-4GygsY3ic9-188" edge="1">
          <mxGeometry relative="1" as="geometry">
            <mxPoint x="249.00000000000773" y="2095" as="sourcePoint" />
            <mxPoint x="-330" y="2095" as="targetPoint" />
          </mxGeometry>
        </mxCell>
        <mxCell id="lx9h9Hkjl-4GygsY3ic9-190" value="&lt;font style=&quot;font-size: 32px&quot; color=&quot;#0000cc&quot;&gt;S2&lt;/font&gt;" style="ellipse;whiteSpace=wrap;html=1;aspect=fixed;strokeWidth=1;fontFamily=Tahoma;spacingBottom=4;spacingRight=2;strokeColor=#36393d;labelBackgroundColor=default;labelBorderColor=none;perimeterSpacing=1;fillColor=#cdeb8b;" parent="1" vertex="1">
          <mxGeometry x="290" y="1965" width="10" height="10" as="geometry" />
        </mxCell>
        <mxCell id="lx9h9Hkjl-4GygsY3ic9-191" value="&lt;div style=&quot;line-height: 19px&quot;&gt;&lt;div style=&quot;line-height: 19px&quot;&gt;&lt;h1 class=&quot;topictitle1&quot;&gt;&lt;font color=&quot;#ff00ff&quot; face=&quot;consolas, courier new, monospace&quot;&gt;&lt;span style=&quot;font-size: 28px&quot;&gt;ConsultTransfer&lt;/span&gt;&lt;/font&gt;&lt;br&gt;&lt;/h1&gt;&lt;div&gt;&lt;font color=&quot;#ff8000&quot; face=&quot;consolas, courier new, monospace&quot;&gt;OnConsultTransferResult&lt;/font&gt;&lt;/div&gt;&lt;div&gt;&lt;font color=&quot;#ff8000&quot; face=&quot;consolas, courier new, monospace&quot;&gt;&lt;br&gt;&lt;/font&gt;&lt;/div&gt;&lt;div&gt;&lt;div style=&quot;color: rgb(0 , 0 , 153) ; font-size: 15px ; line-height: 19px&quot;&gt;&lt;font face=&quot;consolas, courier new, monospace&quot;&gt;&lt;span style=&quot;font-size: 28px&quot;&gt;CHANNEL_CALLSTATE（RING_WAIT）&lt;/span&gt;&lt;/font&gt;&lt;br&gt;&lt;/div&gt;&lt;div style=&quot;color: rgb(0 , 0 , 153) ; font-family: &amp;#34;consolas&amp;#34; , &amp;#34;courier new&amp;#34; , monospace ; line-height: 19px&quot;&gt;&lt;br&gt;&lt;/div&gt;&lt;div style=&quot;color: rgb(0 , 0 , 153) ; font-family: &amp;#34;consolas&amp;#34; , &amp;#34;courier new&amp;#34; , monospace ; line-height: 19px&quot;&gt;&lt;span style=&quot;color: rgb(255 , 128 , 0)&quot;&gt;OnRingwait&lt;/span&gt;&lt;/div&gt;&lt;/div&gt;&lt;div style=&quot;color: rgb(0 , 0 , 153) ; font-family: &amp;#34;consolas&amp;#34; , &amp;#34;courier new&amp;#34; , monospace ; line-height: 19px&quot;&gt;&lt;br&gt;&lt;/div&gt;&lt;div style=&quot;color: rgb(0 , 0 , 153) ; font-family: &amp;#34;consolas&amp;#34; , &amp;#34;courier new&amp;#34; , monospace ; line-height: 19px&quot;&gt;&lt;span style=&quot;color: rgb(255 , 128 , 0)&quot;&gt;OnRemoteStateChange&lt;/span&gt;&lt;span style=&quot;color: rgb(255 , 128 , 0)&quot;&gt;&lt;br&gt;&lt;/span&gt;&lt;/div&gt;&lt;/div&gt;&lt;/div&gt;" style="edgeLabel;html=1;align=center;verticalAlign=middle;resizable=0;points=[];fontSize=28;fontColor=#CC00CC;labelBackgroundColor=default;fontStyle=1;" parent="1" vertex="1" connectable="0">
          <mxGeometry x="21" y="2035" as="geometry">
            <mxPoint x="-35" y="21" as="offset" />
          </mxGeometry>
        </mxCell>
        <mxCell id="lx9h9Hkjl-4GygsY3ic9-211" value="&lt;div style=&quot;line-height: 19px&quot;&gt;&lt;font face=&quot;consolas, courier new, monospace&quot;&gt;&lt;span style=&quot;font-size: 28px&quot;&gt;CHANNEL_CALLSTATE（EARLY）&lt;/span&gt;&lt;/font&gt;&lt;br&gt;&lt;/div&gt;&lt;div style=&quot;font-family: &amp;#34;consolas&amp;#34; , &amp;#34;courier new&amp;#34; , monospace ; line-height: 19px ; font-size: 28px&quot;&gt;&lt;span&gt;&lt;br&gt;&lt;/span&gt;&lt;/div&gt;&lt;div style=&quot;font-family: &amp;#34;consolas&amp;#34; , &amp;#34;courier new&amp;#34; , monospace ; line-height: 19px ; font-size: 28px&quot;&gt;&lt;span&gt;&lt;font color=&quot;#ff8000&quot;&gt;OnEarly&lt;/font&gt;&lt;/span&gt;&lt;/div&gt;&lt;div style=&quot;font-family: &amp;#34;consolas&amp;#34; , &amp;#34;courier new&amp;#34; , monospace ; line-height: 19px ; font-size: 28px&quot;&gt;&lt;span&gt;&lt;font color=&quot;#ff8000&quot;&gt;&lt;br&gt;&lt;/font&gt;&lt;/span&gt;&lt;/div&gt;&lt;div style=&quot;font-family: &amp;#34;consolas&amp;#34; , &amp;#34;courier new&amp;#34; , monospace ; line-height: 19px ; font-size: 28px&quot;&gt;&lt;span style=&quot;color: rgb(255 , 128 , 0)&quot;&gt;OnRemoteStateChange&lt;/span&gt;&lt;span&gt;&lt;font color=&quot;#ff8000&quot;&gt;&lt;br&gt;&lt;/font&gt;&lt;/span&gt;&lt;/div&gt;&lt;div style=&quot;font-family: &amp;#34;consolas&amp;#34; , &amp;#34;courier new&amp;#34; , monospace ; line-height: 19px ; font-size: 28px&quot;&gt;&lt;br&gt;&lt;/div&gt;" style="edgeLabel;html=1;align=center;verticalAlign=middle;resizable=0;points=[];fontSize=15;fontColor=default;labelBackgroundColor=default;fontStyle=1;labelBorderColor=none;" parent="1" vertex="1" connectable="0">
          <mxGeometry x="360" y="1080.0015384615385" as="geometry">
            <mxPoint x="16" y="-30" as="offset" />
          </mxGeometry>
        </mxCell>
        <mxCell id="lx9h9Hkjl-4GygsY3ic9-219" style="edgeStyle=orthogonalEdgeStyle;rounded=0;orthogonalLoop=1;jettySize=auto;html=1;entryX=0;entryY=0.5;entryDx=0;entryDy=0;strokeColor=#000000;strokeWidth=1;curved=1;" parent="1" source="lx9h9Hkjl-4GygsY3ic9-216" target="lx9h9Hkjl-4GygsY3ic9-154" edge="1">
          <mxGeometry relative="1" as="geometry">
            <Array as="points">
              <mxPoint x="-690" y="840" />
              <mxPoint x="-690" y="2814" />
            </Array>
          </mxGeometry>
        </mxCell>
        <mxCell id="lx9h9Hkjl-4GygsY3ic9-216" value="&lt;span style=&quot;font-size: 28px&quot;&gt;RINGING&lt;/span&gt;" style="ellipse;whiteSpace=wrap;html=1;fillColor=#60a917;strokeColor=#2D7600;fontColor=#ffffff;" parent="1" vertex="1">
          <mxGeometry x="248" y="800" width="260" height="80" as="geometry" />
        </mxCell>
        <mxCell id="lx9h9Hkjl-4GygsY3ic9-220" value="&lt;div style=&quot;font-family: &amp;#34;consolas&amp;#34; , &amp;#34;courier new&amp;#34; , monospace ; line-height: 19px ; font-size: 28px&quot;&gt;&lt;div style=&quot;font-family: &amp;#34;consolas&amp;#34; , &amp;#34;courier new&amp;#34; , monospace ; line-height: 19px&quot;&gt;&lt;h1 class=&quot;topictitle1&quot;&gt;&lt;font color=&quot;#ff00ff&quot; style=&quot;font-size: 28px&quot;&gt;HangUp&lt;/font&gt;&lt;/h1&gt;&lt;div&gt;&lt;font style=&quot;font-size: 28px&quot; color=&quot;#ff8000&quot;&gt;OnHangUpResult&lt;/font&gt;&lt;/div&gt;&lt;div&gt;&lt;font style=&quot;font-size: 28px&quot; color=&quot;#ff8000&quot;&gt;&lt;br&gt;&lt;/font&gt;&lt;/div&gt;&lt;div&gt;&lt;font style=&quot;font-size: 28px&quot; color=&quot;#ff8000&quot;&gt;&lt;br&gt;&lt;/font&gt;&lt;/div&gt;&lt;div&gt;&lt;div style=&quot;color: rgb(0 , 0 , 153) ; font-family: &amp;#34;helvetica&amp;#34; ; font-size: 15px ; line-height: 19px&quot;&gt;&lt;font face=&quot;consolas, courier new, monospace&quot;&gt;&lt;span style=&quot;font-size: 28px&quot;&gt;CHANNEL_CALLSTATE（HANGUP）&lt;/span&gt;&lt;/font&gt;&lt;br&gt;&lt;/div&gt;&lt;div style=&quot;color: rgb(0 , 0 , 153) ; line-height: 19px&quot;&gt;&lt;br&gt;&lt;/div&gt;&lt;div style=&quot;color: rgb(0 , 0 , 153) ; line-height: 19px&quot;&gt;&lt;span style=&quot;color: rgb(255 , 128 , 0)&quot;&gt;OnHangup&lt;/span&gt;&lt;br&gt;&lt;/div&gt;&lt;/div&gt;&lt;div&gt;&lt;span style=&quot;color: rgb(255 , 128 , 0)&quot;&gt;&lt;br&gt;&lt;/span&gt;&lt;/div&gt;&lt;div&gt;&lt;font style=&quot;font-size: 28px&quot; color=&quot;#ff8000&quot;&gt;&lt;br&gt;&lt;/font&gt;&lt;/div&gt;&lt;/div&gt;&lt;/div&gt;" style="edgeLabel;html=1;align=center;verticalAlign=middle;resizable=0;points=[];fontSize=15;fontColor=#CC00CC;labelBackgroundColor=default;fontStyle=1;" parent="1" vertex="1" connectable="0">
          <mxGeometry x="-850" y="980" as="geometry">
            <mxPoint x="320" y="206" as="offset" />
          </mxGeometry>
        </mxCell>
        <mxCell id="lx9h9Hkjl-4GygsY3ic9-174" value="&lt;div style=&quot;line-height: 19px&quot;&gt;&lt;font face=&quot;consolas, courier new, monospace&quot;&gt;&lt;span style=&quot;font-size: 28px&quot;&gt;CHANNEL_CALLSTATE（HANGUP）&lt;/span&gt;&lt;/font&gt;&lt;br&gt;&lt;/div&gt;&lt;div style=&quot;font-family: &amp;#34;consolas&amp;#34; , &amp;#34;courier new&amp;#34; , monospace ; line-height: 19px ; font-size: 28px&quot;&gt;&lt;span&gt;&lt;br&gt;&lt;/span&gt;&lt;/div&gt;&lt;div style=&quot;font-family: &amp;#34;consolas&amp;#34; , &amp;#34;courier new&amp;#34; , monospace ; line-height: 19px ; font-size: 28px&quot;&gt;&lt;span style=&quot;color: rgb(255 , 128 , 0)&quot;&gt;OnHangup&lt;/span&gt;&lt;span&gt;&lt;br&gt;&lt;/span&gt;&lt;/div&gt;&lt;div style=&quot;font-family: &amp;#34;consolas&amp;#34; , &amp;#34;courier new&amp;#34; , monospace ; line-height: 19px ; font-size: 28px&quot;&gt;&lt;span&gt;&lt;br&gt;&lt;/span&gt;&lt;/div&gt;&lt;div style=&quot;font-family: &amp;#34;consolas&amp;#34; , &amp;#34;courier new&amp;#34; , monospace ; line-height: 19px ; font-size: 28px&quot;&gt;&lt;div style=&quot;font-family: &amp;#34;consolas&amp;#34; , &amp;#34;courier new&amp;#34; , monospace ; line-height: 19px&quot;&gt;&lt;br&gt;&lt;/div&gt;&lt;/div&gt;" style="edgeLabel;html=1;align=center;verticalAlign=middle;resizable=0;points=[];fontSize=15;fontColor=#000099;labelBackgroundColor=default;fontStyle=1;" parent="1" vertex="1" connectable="0">
          <mxGeometry x="670" y="2420.0015384615385" as="geometry">
            <mxPoint x="204" y="153" as="offset" />
          </mxGeometry>
        </mxCell>
        <mxCell id="lx9h9Hkjl-4GygsY3ic9-176" value="&lt;div style=&quot;line-height: 19px&quot;&gt;&lt;font face=&quot;consolas, courier new, monospace&quot;&gt;&lt;span style=&quot;font-size: 28px&quot;&gt;CHANNEL_CALLSTATE（ACTIVE）&lt;/span&gt;&lt;/font&gt;&lt;br&gt;&lt;/div&gt;&lt;div style=&quot;font-family: &amp;quot;consolas&amp;quot; , &amp;quot;courier new&amp;quot; , monospace ; line-height: 19px ; font-size: 28px&quot;&gt;&lt;span&gt;&lt;br&gt;&lt;/span&gt;&lt;/div&gt;&lt;div style=&quot;font-family: &amp;quot;consolas&amp;quot; , &amp;quot;courier new&amp;quot; , monospace ; line-height: 19px ; font-size: 28px&quot;&gt;&lt;span style=&quot;color: rgb(255 , 128 , 0)&quot;&gt;OnTalking&lt;/span&gt;&lt;span&gt;&lt;br&gt;&lt;/span&gt;&lt;/div&gt;&lt;div style=&quot;font-family: &amp;quot;consolas&amp;quot; , &amp;quot;courier new&amp;quot; , monospace ; line-height: 19px ; font-size: 28px&quot;&gt;&lt;span&gt;&lt;br&gt;&lt;/span&gt;&lt;/div&gt;&lt;div style=&quot;font-family: &amp;quot;consolas&amp;quot; , &amp;quot;courier new&amp;quot; , monospace ; line-height: 19px ; font-size: 28px&quot;&gt;&lt;div style=&quot;font-family: &amp;quot;consolas&amp;quot; , &amp;quot;courier new&amp;quot; , monospace ; line-height: 19px&quot;&gt;&lt;br&gt;&lt;/div&gt;&lt;/div&gt;" style="edgeLabel;html=1;align=center;verticalAlign=middle;resizable=0;points=[];fontSize=15;fontColor=#000099;labelBackgroundColor=default;fontStyle=1;" parent="1" vertex="1" connectable="0">
          <mxGeometry x="750" y="2305.0015384615385" as="geometry">
            <mxPoint x="8" y="-33" as="offset" />
          </mxGeometry>
        </mxCell>
        <mxCell id="GGROJK9o83lD0vYTFvbY-2" style="edgeStyle=orthogonalEdgeStyle;rounded=0;orthogonalLoop=1;jettySize=auto;html=1;entryX=0.5;entryY=0;entryDx=0;entryDy=0;dashed=1;" edge="1" parent="1" source="GGROJK9o83lD0vYTFvbY-1" target="lx9h9Hkjl-4GygsY3ic9-145">
          <mxGeometry relative="1" as="geometry" />
        </mxCell>
        <mxCell id="GGROJK9o83lD0vYTFvbY-3" value="&lt;font color=&quot;#ff00ff&quot;&gt;SIP电话发起外呼/PhoneCtl&lt;/font&gt;" style="edgeLabel;html=1;align=center;verticalAlign=middle;resizable=0;points=[];fontStyle=1;fontSize=22;" vertex="1" connectable="0" parent="GGROJK9o83lD0vYTFvbY-2">
          <mxGeometry x="-0.1792" y="-2" relative="1" as="geometry">
            <mxPoint as="offset" />
          </mxGeometry>
        </mxCell>
        <mxCell id="GGROJK9o83lD0vYTFvbY-1" value="" style="sketch=0;pointerEvents=1;shadow=0;dashed=0;html=1;strokeColor=none;fillColor=#505050;labelPosition=center;verticalLabelPosition=bottom;verticalAlign=top;outlineConnect=0;align=center;shape=mxgraph.office.users.call_center_agent;" vertex="1" parent="1">
          <mxGeometry x="357" y="130" width="46" height="55" as="geometry" />
        </mxCell>
      </root>
    </mxGraphModel>
  </diagram>
</mxfile>
